<svg width="512" height="512" viewBox="0 0 108 108" fill="none" xmlns="http://www.w3.org/2000/svg">
  <defs>
    <linearGradient id="bg" x1="10" y1="10" x2="98" y2="98" gradientUnits="userSpaceOnUse">
      <stop stop-color="#3E3A68"/>
      <stop offset="0.52" stop-color="#D14F63"/>
      <stop offset="1" stop-color="#F0B66A"/>
    </linearGradient>
  </defs>
  <rect x="6" y="6" width="96" height="96" rx="24" fill="url(#bg)"/>
  <path d="M54 22C34.5 22 21 35.9 21 53.8C21 70.8 34.1 85.5 54 86C73.9 85.5 87 70.8 87 53.8C87 35.9 73.5 22 54 22Z" fill="#FFF5E8"/>
  <path d="M36 48C40.4 41.2 47.6 37.8 54 37.8C60.4 37.8 67.6 41.2 72 48C66.4 45.1 60.4 43.7 54 43.7C47.6 43.7 41.6 45.1 36 48Z" fill="#2D2748"/>
  <path d="M35.2 55.6C39 52.1 42.6 50.4 46 50.4C49.4 50.4 51.8 51.6 53.5 54.1C51.6 57.5 48.7 59.2 44.8 59.2C41 59.2 37.8 58 35.2 55.6Z" fill="#2D2748"/>
  <path d="M72.8 55.6C69 52.1 65.4 50.4 62 50.4C58.6 50.4 56.2 51.6 54.5 54.1C56.4 57.5 59.3 59.2 63.2 59.2C67 59.2 70.2 58 72.8 55.6Z" fill="#2D2748"/>
  <path d="M54 63.5C59.9 63.5 64.9 65.5 68.8 69.6C64.6 76 59.7 79.1 54 79.1C48.3 79.1 43.4 76 39.2 69.6C43.1 65.5 48.1 63.5 54 63.5Z" fill="#D14F63"/>
  <path d="M77 24L79.5 29.5L85 32L79.5 34.5L77 40L74.5 34.5L69 32L74.5 29.5L77 24Z" fill="#F7D98E"/>
</svg>
